<svg width="20" height="20" viewBox="0 0 20 20" fill="none" xmlns="http://www.w3.org/2000/svg">
<g clip-path="url(#clip0_1104_3536)">
<path d="M16.6666 7.77775H12.6982L9.04887 1.39095C9.0002 1.30591 8.92994 1.23525 8.84519 1.1861C8.76043 1.13696 8.6642 1.11108 8.56623 1.11108L6.29192 1.11108C5.92282 1.11108 5.6565 1.46421 5.75789 1.81907L7.46032 7.77775H3.8888L2.3888 5.77775C2.28394 5.63782 2.119 5.55553 1.94435 5.55553H0.555811C0.194352 5.55553 -0.0709254 5.89511 0.0169218 6.24581L1.11102 9.99997L0.0169218 13.7541C-0.0709254 14.1048 0.194352 14.4444 0.555811 14.4444H1.94435C2.11935 14.4444 2.28394 14.3621 2.3888 14.2222L3.8888 12.2222H7.46032L5.75789 18.1805C5.6565 18.5354 5.92282 18.8889 6.29192 18.8889H8.56623C8.76553 18.8889 8.94956 18.7819 9.04852 18.609L12.6982 12.2222H16.6666C17.894 12.2222 19.9999 11.2274 19.9999 9.99997C19.9999 8.77254 17.894 7.77775 16.6666 7.77775Z" fill="#AEAEAE"/>
</g>
<defs>
<clipPath id="clip0_1104_3536">
<rect width="20" height="20" fill="white"/>
</clipPath>
</defs>
</svg>
