<svg width="137" height="46" viewBox="0 0 137 46" fill="none" xmlns="http://www.w3.org/2000/svg">
<g filter="url(#filter0_d_102_2)">
<g clip-path="url(#clip0_102_2)">
<path d="M92.5687 12.2375C91.3499 12.7813 89.4562 13.8313 87.3187 15.05L77.0812 13.625C76.5067 13.5422 75.9211 13.5831 75.3637 13.745L73.1418 14.375C72.9543 14.375 72.9543 14.5625 73.1418 14.6375L81.6918 18.3875C78.8043 20.1125 76.2355 21.6875 75.1105 22.4C74.9098 22.5261 74.6837 22.6063 74.4484 22.6348C74.2131 22.6634 73.9743 22.6395 73.7493 22.565L71.5105 21.8563C71.155 21.7295 70.7664 21.7308 70.4118 21.86L68.998 22.4375L73.723 26.375C73.9606 26.5743 74.2495 26.7025 74.5566 26.745C74.8637 26.7874 75.1766 26.7424 75.4593 26.615C77.7168 25.6063 83.6605 22.8688 88.0855 20.5625C97.9105 15.35 98.998 14.45 98.998 13.625C98.998 12.3313 95.248 11 92.5668 12.2375H92.5687ZM68.9999 32.375H98.9999V34.25H68.9999V32.375Z" fill="white"/>
</g>
<path d="M4.29545 31V7.72727H19.2045V11.2614H8.51136V17.5795H18.1818V21.1136H8.51136V31H4.29545ZM26.9773 7.72727V31H22.8636V7.72727H26.9773ZM33.7642 37.5455C33.2036 37.5455 32.6847 37.5 32.2074 37.4091C31.7377 37.3258 31.3627 37.2273 31.0824 37.1136L32.0369 33.9091C32.6354 34.0833 33.1695 34.1667 33.6392 34.1591C34.1089 34.1515 34.5218 34.0038 34.8778 33.7159C35.2415 33.4356 35.5483 32.9659 35.7983 32.3068L36.1506 31.3636L29.821 13.5455H34.1847L38.2074 26.7273H38.3892L42.4233 13.5455H46.7983L39.8097 33.1136C39.4839 34.0379 39.0521 34.8295 38.5142 35.4886C37.9763 36.1553 37.3172 36.6629 36.5369 37.0114C35.7642 37.3674 34.84 37.5455 33.7642 37.5455ZM49.8267 31V7.72727H58.554C60.3419 7.72727 61.8419 8.06061 63.054 8.72727C64.2737 9.39394 65.1941 10.3106 65.8153 11.4773C66.4441 12.6364 66.7585 13.9545 66.7585 15.4318C66.7585 16.9242 66.4441 18.25 65.8153 19.4091C65.1866 20.5682 64.2585 21.4811 63.0312 22.1477C61.804 22.8068 60.2926 23.1364 58.4972 23.1364H52.7131V19.6705H57.929C58.9744 19.6705 59.8305 19.4886 60.4972 19.125C61.1638 18.7614 61.6563 18.2614 61.9744 17.625C62.3002 16.9886 62.4631 16.2576 62.4631 15.4318C62.4631 14.6061 62.3002 13.8788 61.9744 13.25C61.6563 12.6212 61.16 12.1326 60.4858 11.7841C59.8191 11.428 58.9593 11.25 57.9062 11.25H54.0426V31H49.8267Z" fill="white"/>
<path d="M114.909 21.1591L111.159 21.5682C111.053 21.1894 110.867 20.8333 110.602 20.5C110.345 20.1667 109.996 19.8977 109.557 19.6932C109.117 19.4886 108.58 19.3864 107.943 19.3864C107.087 19.3864 106.367 19.572 105.784 19.9432C105.208 20.3144 104.924 20.7955 104.932 21.3864C104.924 21.8939 105.11 22.3068 105.489 22.625C105.875 22.9432 106.511 23.2045 107.398 23.4091L110.375 24.0455C112.027 24.4015 113.254 24.9659 114.057 25.7386C114.867 26.5114 115.277 27.5227 115.284 28.7727C115.277 29.8712 114.955 30.8409 114.318 31.6818C113.689 32.5152 112.814 33.1667 111.693 33.6364C110.572 34.1061 109.284 34.3409 107.83 34.3409C105.693 34.3409 103.973 33.8939 102.67 33C101.367 32.0985 100.591 30.8447 100.341 29.2386L104.352 28.8523C104.534 29.6402 104.92 30.2348 105.511 30.6364C106.102 31.0379 106.871 31.2386 107.818 31.2386C108.795 31.2386 109.58 31.0379 110.17 30.6364C110.769 30.2348 111.068 29.7386 111.068 29.1477C111.068 28.6477 110.875 28.2348 110.489 27.9091C110.11 27.5833 109.519 27.3333 108.716 27.1591L105.739 26.5341C104.064 26.1856 102.826 25.5985 102.023 24.7727C101.22 23.9394 100.822 22.8864 100.83 21.6136C100.822 20.5379 101.114 19.6061 101.705 18.8182C102.303 18.0227 103.133 17.4091 104.193 16.9773C105.261 16.5379 106.492 16.3182 107.886 16.3182C109.932 16.3182 111.542 16.7538 112.716 17.625C113.898 18.4962 114.629 19.6742 114.909 21.1591ZM132.472 21.1591L128.722 21.5682C128.616 21.1894 128.43 20.8333 128.165 20.5C127.907 20.1667 127.559 19.8977 127.119 19.6932C126.68 19.4886 126.142 19.3864 125.506 19.3864C124.65 19.3864 123.93 19.572 123.347 19.9432C122.771 20.3144 122.487 20.7955 122.494 21.3864C122.487 21.8939 122.672 22.3068 123.051 22.625C123.438 22.9432 124.074 23.2045 124.96 23.4091L127.938 24.0455C129.589 24.4015 130.816 24.9659 131.619 25.7386C132.43 26.5114 132.839 27.5227 132.847 28.7727C132.839 29.8712 132.517 30.8409 131.881 31.6818C131.252 32.5152 130.377 33.1667 129.256 33.6364C128.134 34.1061 126.847 34.3409 125.392 34.3409C123.256 34.3409 121.536 33.8939 120.233 33C118.93 32.0985 118.153 30.8447 117.903 29.2386L121.915 28.8523C122.097 29.6402 122.483 30.2348 123.074 30.6364C123.665 31.0379 124.434 31.2386 125.381 31.2386C126.358 31.2386 127.142 31.0379 127.733 30.6364C128.331 30.2348 128.631 29.7386 128.631 29.1477C128.631 28.6477 128.438 28.2348 128.051 27.9091C127.672 27.5833 127.081 27.3333 126.278 27.1591L123.301 26.5341C121.627 26.1856 120.388 25.5985 119.585 24.7727C118.782 23.9394 118.384 22.8864 118.392 21.6136C118.384 20.5379 118.676 19.6061 119.267 18.8182C119.866 18.0227 120.695 17.4091 121.756 16.9773C122.824 16.5379 124.055 16.3182 125.449 16.3182C127.494 16.3182 129.104 16.7538 130.278 17.625C131.46 18.4962 132.191 19.6742 132.472 21.1591Z" fill="white"/>
</g>
<defs>
<filter id="filter0_d_102_2" x="0.29541" y="7.72729" width="136.551" height="38.2727" filterUnits="userSpaceOnUse" color-interpolation-filters="sRGB">
<feFlood flood-opacity="0" result="BackgroundImageFix"/>
<feColorMatrix in="SourceAlpha" type="matrix" values="0 0 0 0 0 0 0 0 0 0 0 0 0 0 0 0 0 0 127 0" result="hardAlpha"/>
<feOffset dy="4"/>
<feGaussianBlur stdDeviation="2"/>
<feComposite in2="hardAlpha" operator="out"/>
<feColorMatrix type="matrix" values="0 0 0 0 0 0 0 0 0 0 0 0 0 0 0 0 0 0 0.25 0"/>
<feBlend mode="normal" in2="BackgroundImageFix" result="effect1_dropShadow_102_2"/>
<feBlend mode="normal" in="SourceGraphic" in2="effect1_dropShadow_102_2" result="shape"/>
</filter>
<clipPath id="clip0_102_2">
<rect width="30" height="30" fill="white" transform="translate(69 8)"/>
</clipPath>
</defs>
</svg>
